M48
METRIC,LZ,000.000
;FILE_FORMAT=3:3
;TYPE=PLATED
;Layer: PTH_Through
;EasyEDA v6.5.22, 2023-01-26 08:19:38
;8426a333df6747daab18ef12c2f6586b,10
;Gerber Generator version 0.2
;Holesize 1 = 0.800 mm
T01C0.800
;Holesize 2 = 0.915 mm
T02C0.915
%
G05
G90
T01
X-025916Y025522
X-025916Y028062
X-025916Y030602
X-025916Y033142
X-025916Y035682
X035806Y-016261
X035806Y-013721
X035806Y-011181
X-022728Y-029342
X-022728Y-026802
X-022728Y-024262
X-022728Y-021722
X-022728Y-019182
X-022728Y-016642
X-022728Y-014102
X026916Y036444
X026916Y033904
X026916Y031364
X026916Y028824
X026916Y026284
X026916Y023744
X026916Y021204
X026916Y018664
X026916Y016124
X026916Y013584
X026916Y011044
X026916Y008504
X011512Y-010546
X-008988Y-010546
X011512Y-008006
X-008988Y-008006
X011512Y-005466
X-008988Y-005466
X011512Y-002926
X-008988Y-002926
X011512Y-000386
X-008988Y-000386
X011512Y002154
X-008988Y002154
X011512Y004694
X-008988Y004694
X011512Y007234
X-008988Y007234
X011512Y009774
X-008988Y009774
X011512Y012314
X-008988Y012314
X011512Y014854
X-008988Y014854
X011512Y017394
X-008988Y017394
X011512Y019934
X-008988Y019934
X011512Y022474
X-008988Y022474
X024008Y-025278
X026548Y-025278
X029088Y-025278
T02
X035438Y-031691
X035438Y-020071
X018742Y003864
M30
