G04 Layer: BottomLayer*
G04 EasyEDA v6.5.22, 2023-01-26 08:19:38*
G04 8426a333df6747daab18ef12c2f6586b,10*
G04 Gerber Generator version 0.2*
G04 Scale: 100 percent, Rotated: No, Reflected: No *
G04 Dimensions in millimeters *
G04 leading zeros omitted , absolute positions ,4 integer and 5 decimal *
%FSLAX45Y45*%
%MOMM*%

%ADD10C,0.5000*%
%ADD11C,1.5240*%
%ADD12R,1.5000X1.5000*%
%ADD13C,1.5000*%

%LPD*%
D10*
X2895594Y-2514594D02*
G01*
X2895594Y-2362194D01*
X2895594Y-2362194D02*
G01*
X3176524Y-2362200D01*
X3543300Y-1995423D01*
X2641594Y-1828797D02*
G01*
X2641594Y-1117597D01*
X3119615Y-1126731D01*
X3462764Y-1126731D01*
X2403541Y-1807888D02*
G01*
X1196992Y-1807888D01*
X-318295Y-292600D01*
X-898763Y-292600D01*
X1151221Y977399D02*
G01*
X1809381Y977399D01*
X1936381Y850399D01*
X2691622Y850399D01*
X2646299Y-2515107D02*
G01*
X2641594Y-1803397D01*
X2641594Y-1803397D02*
G01*
X2403541Y-1807888D01*
X3835392Y-1625597D02*
G01*
X3784592Y-2946394D01*
X3124194Y-2971794D01*
X2655049Y-2997695D01*
X1932165Y-2997695D01*
X-506234Y-559295D01*
X-910097Y-559295D01*
X2934200Y3136394D02*
G01*
X3478055Y2592532D01*
X3478055Y-1118105D01*
X3121748Y-1372100D02*
G01*
X3580549Y-1372100D01*
X-2591569Y2806199D02*
G01*
X-2821622Y2806199D01*
X-2821622Y2806199D02*
G01*
X-2821746Y2806324D01*
X-2821746Y3742545D01*
X-2765917Y3798374D01*
X-264121Y3798374D01*
X397852Y3136399D01*
X2691622Y3136399D01*
X3580549Y-1118100D02*
G01*
X3465540Y-1118100D01*
X2691622Y3136399D02*
G01*
X2921673Y3136399D01*
X-1128814Y-292600D02*
G01*
X-1128913Y-292699D01*
X-1128913Y-1766359D01*
X-2042754Y-2680200D01*
X-898763Y-292600D02*
G01*
X-1128814Y-292600D01*
X-2272799Y-2680200D02*
G01*
X-2042754Y-2680200D01*
X-2591569Y3060199D02*
G01*
X-2457079Y3060199D01*
X-2361394Y2964515D01*
X-2361394Y1554667D01*
X-2657843Y1258219D01*
X-2657843Y-2991982D01*
X-2480675Y-3169150D01*
X3543800Y-3169150D01*
X-1128814Y977399D02*
G01*
X-1591470Y514736D01*
X-1591470Y-1720916D01*
X-2042754Y-2172200D01*
X-898763Y977399D02*
G01*
X-1128814Y977399D01*
X-2272799Y-2172200D02*
G01*
X-2042754Y-2172200D01*
X-1128814Y723399D02*
G01*
X-1367955Y484258D01*
X-1367955Y-1751401D01*
X-2042754Y-2426200D01*
X-898763Y723399D02*
G01*
X-1128814Y723399D01*
X-2272799Y-2426200D02*
G01*
X-2042754Y-2426200D01*
X-2502849Y-2934200D02*
G01*
X-2503081Y-2933971D01*
X-2503081Y627057D01*
X-1136738Y1993399D01*
X-2591569Y3314199D02*
G01*
X-2457538Y3314199D01*
X-1136738Y1993399D01*
X-1136738Y1993399D02*
G01*
X-898763Y1993399D01*
X-2272799Y-2934200D02*
G01*
X-2502849Y-2934200D01*
X-668718Y1231399D02*
G01*
X886195Y-323512D01*
X886195Y-1179672D01*
X991273Y-1284749D01*
X1319011Y-1284749D01*
X2921772Y318015D01*
X2921772Y2628300D01*
X2921673Y2628399D01*
X-898763Y1231399D02*
G01*
X-668718Y1231399D01*
X2691622Y2628399D02*
G01*
X2921673Y2628399D01*
X-2821622Y2552199D02*
G01*
X-2986361Y2716946D01*
X-2986361Y3806931D01*
X-2841967Y3951333D01*
X2154651Y3951333D01*
X2461585Y3644399D01*
X-2591569Y2552199D02*
G01*
X-2821622Y2552199D01*
X2576616Y3644399D02*
G01*
X2461585Y3644399D01*
X2576616Y3644399D02*
G01*
X2691622Y3644399D01*
X2921673Y3644399D02*
G01*
X3829364Y2736702D01*
X3829364Y-1607329D01*
X3810599Y-1626100D01*
X2691622Y3644399D02*
G01*
X2921673Y3644399D01*
X3663383Y-1626100D02*
G01*
X3810599Y-1626100D01*
X3663383Y-1626100D02*
G01*
X3580549Y-1626100D01*
X1151221Y1231399D02*
G01*
X1809381Y1231399D01*
X1936381Y1104399D01*
X2691622Y1104399D01*
X1151221Y1485399D02*
G01*
X1809381Y1485399D01*
X1936381Y1358399D01*
X2691622Y1358399D01*
X1151221Y1739399D02*
G01*
X1809381Y1739399D01*
X1936381Y1612399D01*
X2691622Y1612399D01*
X1151221Y1993399D02*
G01*
X1809381Y1993399D01*
X1936381Y1866399D01*
X2691622Y1866399D01*
X1151221Y2247399D02*
G01*
X1809381Y2247399D01*
X1936381Y2120399D01*
X2691622Y2120399D01*
X-2361526Y3568199D02*
G01*
X-2361526Y3480112D01*
X-1128814Y2247399D01*
X-898763Y2247399D02*
G01*
X-1128814Y2247399D01*
X-2591569Y3568199D02*
G01*
X-2361526Y3568199D01*
X-898763Y1739399D02*
G01*
X-291594Y1739399D01*
X-266199Y1764794D01*
X-266199Y2577599D01*
X1591157Y2577594D02*
G01*
X1892800Y2577594D01*
X2095987Y2374399D01*
X2691635Y2374399D01*
X1151221Y723399D02*
G01*
X1175044Y699574D01*
X1561025Y699574D01*
X1874177Y386422D01*
X2691622Y2882399D02*
G01*
X1234452Y2882399D01*
X-162547Y1485399D01*
X-898763Y1485399D01*
D11*
G01*
X3543808Y-3169157D03*
G01*
X3543808Y-2007107D03*
D12*
G01*
X-2591562Y2552192D03*
G01*
X-2591562Y2806192D03*
G01*
X-2591562Y3060192D03*
G01*
X-2591562Y3314192D03*
G01*
X-2591562Y3568192D03*
G01*
X3580638Y-1626107D03*
G01*
X3580638Y-1372107D03*
G01*
X3580638Y-1118107D03*
G01*
X-2272792Y-2934207D03*
G01*
X-2272792Y-2680207D03*
G01*
X-2272792Y-2426207D03*
G01*
X-2272792Y-2172207D03*
G01*
X-2272792Y-1918207D03*
G01*
X-2272792Y-1664207D03*
G01*
X-2272792Y-1410207D03*
G01*
X2691638Y3644392D03*
G01*
X2691638Y3390392D03*
G01*
X2691638Y3136392D03*
G01*
X2691638Y2882392D03*
G01*
X2691638Y2628392D03*
G01*
X2691638Y2374392D03*
G01*
X2691638Y2120392D03*
G01*
X2691638Y1866392D03*
G01*
X2691638Y1612392D03*
G01*
X2691638Y1358392D03*
G01*
X2691638Y1104392D03*
G01*
X2691638Y850392D03*
G01*
X1151229Y-1054607D03*
G01*
X-898753Y-1054607D03*
G01*
X1151229Y-800607D03*
G01*
X-898753Y-800607D03*
G01*
X1151229Y-546607D03*
G01*
X-898753Y-546607D03*
G01*
X1151229Y-292607D03*
G01*
X-898753Y-292607D03*
G01*
X1151229Y-38607D03*
G01*
X-898753Y-38607D03*
G01*
X1151229Y215392D03*
G01*
X-898753Y215392D03*
G01*
X1151229Y469392D03*
G01*
X-898753Y469392D03*
G01*
X1151229Y723392D03*
G01*
X-898753Y723392D03*
G01*
X1151229Y977392D03*
G01*
X-898753Y977392D03*
G01*
X1151229Y1231392D03*
G01*
X-898753Y1231392D03*
G01*
X1151229Y1485392D03*
G01*
X-898753Y1485392D03*
G01*
X1151229Y1739392D03*
G01*
X-898753Y1739392D03*
G01*
X1151229Y1993392D03*
G01*
X-898753Y1993392D03*
G01*
X1151229Y2247392D03*
G01*
X-898753Y2247392D03*
G01*
X2400808Y-2527807D03*
G01*
X2654808Y-2527807D03*
G01*
X2908808Y-2527807D03*
D11*
G01*
X1874189Y386410D03*
D13*
G01*
X-266192Y2577592D03*
G01*
X1591157Y2577592D03*
G01*
X3121761Y-1372107D03*
M02*
