G04 Layer: TopSolderMaskLayer*
G04 EasyEDA v6.5.22, 2023-01-26 08:19:38*
G04 8426a333df6747daab18ef12c2f6586b,10*
G04 Gerber Generator version 0.2*
G04 Scale: 100 percent, Rotated: No, Reflected: No *
G04 Dimensions in millimeters *
G04 leading zeros omitted , absolute positions ,4 integer and 5 decimal *
%FSLAX45Y45*%
%MOMM*%

%AMMACRO1*1,1,$1,$2,$3*1,1,$1,$4,$5*1,1,$1,0-$2,0-$3*1,1,$1,0-$4,0-$5*20,1,$1,$2,$3,$4,$5,0*20,1,$1,$4,$5,0-$2,0-$3,0*20,1,$1,0-$2,0-$3,0-$4,0-$5,0*20,1,$1,0-$4,0-$5,$2,$3,0*4,1,4,$2,$3,$4,$5,0-$2,0-$3,0-$4,0-$5,$2,$3,0*%
%ADD10C,1.6256*%
%ADD11MACRO1,0.1016X-0.75X-0.75X-0.75X0.75*%
%ADD12MACRO1,0.1016X0.75X0.75X0.75X-0.75*%
%ADD13MACRO1,0.1016X0.75X-0.75X-0.75X-0.75*%

%LPD*%
D10*
G01*
X3543808Y-3169157D03*
G01*
X3543808Y-2007107D03*
D11*
G01*
X-2591568Y2552200D03*
G01*
X-2591568Y2806200D03*
G01*
X-2591568Y3060200D03*
G01*
X-2591568Y3314200D03*
G01*
X-2591568Y3568200D03*
G01*
X3580631Y-1626099D03*
G01*
X3580631Y-1372099D03*
G01*
X3580631Y-1118099D03*
G01*
X-2272798Y-2934199D03*
G01*
X-2272798Y-2680199D03*
G01*
X-2272798Y-2426199D03*
G01*
X-2272798Y-2172199D03*
G01*
X-2272798Y-1918199D03*
G01*
X-2272798Y-1664199D03*
G01*
X-2272798Y-1410199D03*
D12*
G01*
X2691629Y3644398D03*
G01*
X2691629Y3390398D03*
G01*
X2691629Y3136398D03*
G01*
X2691629Y2882398D03*
G01*
X2691629Y2628398D03*
G01*
X2691629Y2374398D03*
G01*
X2691629Y2120398D03*
G01*
X2691629Y1866398D03*
G01*
X2691629Y1612398D03*
G01*
X2691629Y1358398D03*
G01*
X2691629Y1104398D03*
G01*
X2691629Y850398D03*
D11*
G01*
X1151223Y-1054599D03*
G01*
X-898759Y-1054599D03*
G01*
X1151223Y-800599D03*
G01*
X-898759Y-800599D03*
G01*
X1151223Y-546599D03*
G01*
X-898759Y-546599D03*
G01*
X1151223Y-292599D03*
G01*
X-898759Y-292599D03*
G01*
X1151223Y-38599D03*
G01*
X-898759Y-38599D03*
G01*
X1151223Y215400D03*
G01*
X-898759Y215400D03*
G01*
X1151223Y469400D03*
G01*
X-898759Y469400D03*
G01*
X1151223Y723400D03*
G01*
X-898759Y723400D03*
G01*
X1151223Y977400D03*
G01*
X-898759Y977400D03*
G01*
X1151223Y1231400D03*
G01*
X-898759Y1231400D03*
G01*
X1151223Y1485400D03*
G01*
X-898759Y1485400D03*
G01*
X1151223Y1739400D03*
G01*
X-898759Y1739400D03*
G01*
X1151223Y1993400D03*
G01*
X-898759Y1993400D03*
G01*
X1151223Y2247400D03*
G01*
X-898759Y2247400D03*
D13*
G01*
X2400806Y-2527806D03*
G01*
X2654806Y-2527806D03*
G01*
X2908806Y-2527806D03*
D10*
G01*
X1874189Y386410D03*
M02*
