G04 Layer: TopSilkscreenLayer*
G04 EasyEDA v6.5.22, 2023-01-26 08:19:38*
G04 8426a333df6747daab18ef12c2f6586b,10*
G04 Gerber Generator version 0.2*
G04 Scale: 100 percent, Rotated: No, Reflected: No *
G04 Dimensions in millimeters *
G04 leading zeros omitted , absolute positions ,4 integer and 5 decimal *
%FSLAX45Y45*%
%MOMM*%

%ADD10C,0.1524*%
%ADD11C,0.2032*%
%ADD12C,0.3000*%

%LPD*%
G36*
X1988312Y-4173728D02*
G01*
X1985467Y-4174236D01*
X1983079Y-4175607D01*
X1981504Y-4177792D01*
X1980946Y-4180586D01*
X1981504Y-4183379D01*
X1983079Y-4185513D01*
X1985467Y-4186936D01*
X1988312Y-4187444D01*
X1991055Y-4186936D01*
X1993290Y-4185564D01*
X1994865Y-4183379D01*
X1995424Y-4180586D01*
X1994865Y-4177792D01*
X1993290Y-4175607D01*
X1991055Y-4174236D01*
G37*
G36*
X2670556Y-4178300D02*
G01*
X2664206Y-4178858D01*
X2658211Y-4180484D01*
X2652674Y-4183227D01*
X2647797Y-4186986D01*
X2643784Y-4191812D01*
X2640685Y-4197604D01*
X2638755Y-4204360D01*
X2638044Y-4212082D01*
X2638450Y-4217365D01*
X2639669Y-4222445D01*
X2641549Y-4227220D01*
X2644038Y-4231741D01*
X2647086Y-4235958D01*
X2650591Y-4239818D01*
X2654452Y-4243425D01*
X2658618Y-4246626D01*
X2642870Y-4246626D01*
X2640076Y-4235704D01*
X2634488Y-4235704D01*
X2635504Y-4254500D01*
X2665222Y-4254500D01*
X2665222Y-4247642D01*
X2661513Y-4244289D01*
X2658211Y-4240530D01*
X2655316Y-4236415D01*
X2652928Y-4231944D01*
X2650998Y-4227271D01*
X2649626Y-4222343D01*
X2648762Y-4217263D01*
X2648458Y-4212082D01*
X2648813Y-4206087D01*
X2649931Y-4200601D01*
X2651760Y-4195673D01*
X2654249Y-4191406D01*
X2657449Y-4187951D01*
X2661208Y-4185310D01*
X2665577Y-4183684D01*
X2670556Y-4183126D01*
X2675534Y-4183684D01*
X2679954Y-4185310D01*
X2683764Y-4187951D01*
X2686964Y-4191406D01*
X2689504Y-4195673D01*
X2691384Y-4200601D01*
X2692501Y-4206087D01*
X2692908Y-4212082D01*
X2692603Y-4217263D01*
X2691688Y-4222343D01*
X2690266Y-4227271D01*
X2688285Y-4231944D01*
X2685846Y-4236415D01*
X2682951Y-4240530D01*
X2679598Y-4244289D01*
X2675890Y-4247642D01*
X2675890Y-4254500D01*
X2705862Y-4254500D01*
X2706878Y-4235704D01*
X2701036Y-4235704D01*
X2698496Y-4246626D01*
X2682748Y-4246626D01*
X2686913Y-4243425D01*
X2690723Y-4239818D01*
X2694178Y-4235958D01*
X2697175Y-4231741D01*
X2699664Y-4227220D01*
X2701493Y-4222445D01*
X2702661Y-4217365D01*
X2703068Y-4212082D01*
X2702356Y-4204360D01*
X2700426Y-4197604D01*
X2697327Y-4191812D01*
X2693263Y-4186986D01*
X2688437Y-4183227D01*
X2682900Y-4180484D01*
X2676906Y-4178858D01*
G37*
G36*
X2472182Y-4178554D02*
G01*
X2467762Y-4179062D01*
X2463444Y-4180636D01*
X2459482Y-4183329D01*
X2455875Y-4187240D01*
X2452878Y-4192422D01*
X2450592Y-4199026D01*
X2449068Y-4207052D01*
X2448560Y-4216654D01*
X2458466Y-4216654D01*
X2458770Y-4207560D01*
X2459634Y-4200144D01*
X2460955Y-4194251D01*
X2462631Y-4189780D01*
X2464714Y-4186529D01*
X2467051Y-4184396D01*
X2469540Y-4183227D01*
X2472182Y-4182872D01*
X2474722Y-4183227D01*
X2477160Y-4184396D01*
X2479395Y-4186529D01*
X2481376Y-4189780D01*
X2483002Y-4194251D01*
X2484272Y-4200144D01*
X2485085Y-4207560D01*
X2485390Y-4216654D01*
X2485085Y-4226102D01*
X2484272Y-4233824D01*
X2483002Y-4239920D01*
X2481376Y-4244543D01*
X2479395Y-4247896D01*
X2477160Y-4250131D01*
X2474722Y-4251350D01*
X2472182Y-4251706D01*
X2469540Y-4251350D01*
X2467051Y-4250131D01*
X2464714Y-4247896D01*
X2462631Y-4244543D01*
X2460955Y-4239920D01*
X2459634Y-4233824D01*
X2458770Y-4226102D01*
X2458466Y-4216654D01*
X2448560Y-4216654D01*
X2449068Y-4226610D01*
X2450592Y-4234891D01*
X2452878Y-4241749D01*
X2455875Y-4247083D01*
X2459482Y-4251147D01*
X2463444Y-4253890D01*
X2467762Y-4255516D01*
X2472182Y-4256024D01*
X2476550Y-4255516D01*
X2480716Y-4253890D01*
X2484628Y-4251147D01*
X2488133Y-4247083D01*
X2491079Y-4241749D01*
X2493314Y-4234891D01*
X2494788Y-4226610D01*
X2495296Y-4216654D01*
X2494788Y-4207052D01*
X2493314Y-4199026D01*
X2491079Y-4192422D01*
X2488133Y-4187240D01*
X2484628Y-4183329D01*
X2480716Y-4180636D01*
X2476550Y-4179062D01*
G37*
G36*
X2527808Y-4178554D02*
G01*
X2523388Y-4179062D01*
X2519121Y-4180636D01*
X2515158Y-4183329D01*
X2511653Y-4187240D01*
X2508707Y-4192422D01*
X2506421Y-4199026D01*
X2504948Y-4207052D01*
X2504440Y-4216654D01*
X2514346Y-4216654D01*
X2514650Y-4207560D01*
X2515463Y-4200144D01*
X2516733Y-4194251D01*
X2518410Y-4189780D01*
X2520442Y-4186529D01*
X2522728Y-4184396D01*
X2525166Y-4183227D01*
X2527808Y-4182872D01*
X2530348Y-4183227D01*
X2532786Y-4184396D01*
X2535021Y-4186529D01*
X2537002Y-4189780D01*
X2538628Y-4194251D01*
X2539898Y-4200144D01*
X2540711Y-4207560D01*
X2541016Y-4216654D01*
X2540711Y-4226102D01*
X2539898Y-4233824D01*
X2538628Y-4239920D01*
X2537002Y-4244543D01*
X2535021Y-4247896D01*
X2532786Y-4250131D01*
X2530348Y-4251350D01*
X2527808Y-4251706D01*
X2525166Y-4251350D01*
X2522728Y-4250131D01*
X2520442Y-4247896D01*
X2518410Y-4244543D01*
X2516733Y-4239920D01*
X2515463Y-4233824D01*
X2514650Y-4226102D01*
X2514346Y-4216654D01*
X2504440Y-4216654D01*
X2504948Y-4226610D01*
X2506421Y-4234891D01*
X2508707Y-4241749D01*
X2511653Y-4247083D01*
X2515158Y-4251147D01*
X2519121Y-4253890D01*
X2523388Y-4255516D01*
X2527808Y-4256024D01*
X2532176Y-4255516D01*
X2536393Y-4253890D01*
X2540355Y-4251147D01*
X2543860Y-4247083D01*
X2546858Y-4241749D01*
X2549144Y-4234891D01*
X2550668Y-4226610D01*
X2551176Y-4216654D01*
X2550668Y-4207052D01*
X2549144Y-4199026D01*
X2546858Y-4192422D01*
X2543860Y-4187240D01*
X2540355Y-4183329D01*
X2536393Y-4180636D01*
X2532176Y-4179062D01*
G37*
G36*
X2420620Y-4178808D02*
G01*
X2397760Y-4184904D01*
X2397760Y-4188714D01*
X2412746Y-4187444D01*
X2412492Y-4248912D01*
X2396744Y-4250944D01*
X2396744Y-4254500D01*
X2437638Y-4254500D01*
X2437638Y-4250944D01*
X2422144Y-4248912D01*
X2421940Y-4239920D01*
X2421890Y-4196080D01*
X2422144Y-4180078D01*
G37*
G36*
X1656080Y-4180078D02*
G01*
X1656080Y-4183887D01*
X1666239Y-4184904D01*
X1666493Y-4220210D01*
X1676654Y-4220210D01*
X1676907Y-4184396D01*
X1684020Y-4184396D01*
X1692605Y-4185564D01*
X1698650Y-4189018D01*
X1702155Y-4194556D01*
X1703324Y-4202176D01*
X1702257Y-4209491D01*
X1698802Y-4215180D01*
X1692706Y-4218889D01*
X1683766Y-4220210D01*
X1666493Y-4220210D01*
X1666239Y-4249420D01*
X1656080Y-4250690D01*
X1656080Y-4254500D01*
X1687575Y-4254500D01*
X1687575Y-4250690D01*
X1676907Y-4249420D01*
X1676654Y-4224782D01*
X1682496Y-4224782D01*
X1690319Y-4224324D01*
X1696923Y-4222953D01*
X1702307Y-4220819D01*
X1706575Y-4218076D01*
X1709826Y-4214672D01*
X1712010Y-4210862D01*
X1713331Y-4206646D01*
X1713738Y-4202176D01*
X1713331Y-4197451D01*
X1712010Y-4193133D01*
X1709877Y-4189374D01*
X1706829Y-4186174D01*
X1702917Y-4183583D01*
X1698091Y-4181652D01*
X1692402Y-4180484D01*
X1685798Y-4180078D01*
G37*
G36*
X2560574Y-4180078D02*
G01*
X2560574Y-4183887D01*
X2570988Y-4184904D01*
X2571242Y-4227474D01*
X2570988Y-4249420D01*
X2560574Y-4250690D01*
X2560574Y-4254500D01*
X2591816Y-4254500D01*
X2591816Y-4250690D01*
X2581148Y-4249420D01*
X2581148Y-4228592D01*
X2592070Y-4215384D01*
X2610612Y-4249420D01*
X2601214Y-4250690D01*
X2601214Y-4254500D01*
X2629916Y-4254500D01*
X2629916Y-4250690D01*
X2621280Y-4249674D01*
X2598166Y-4208272D01*
X2616962Y-4185158D01*
X2627630Y-4183887D01*
X2627630Y-4180078D01*
X2601976Y-4180078D01*
X2601976Y-4183887D01*
X2610866Y-4185412D01*
X2581148Y-4222242D01*
X2581148Y-4184904D01*
X2591816Y-4183887D01*
X2591816Y-4180078D01*
G37*
G36*
X1788668Y-4186428D02*
G01*
X1785620Y-4201414D01*
X1775714Y-4202684D01*
X1775714Y-4206748D01*
X1785112Y-4206748D01*
X1785112Y-4242816D01*
X1785975Y-4248759D01*
X1788414Y-4252874D01*
X1792376Y-4255262D01*
X1797812Y-4256024D01*
X1801774Y-4255617D01*
X1805228Y-4254449D01*
X1808124Y-4252569D01*
X1810512Y-4250182D01*
X1808480Y-4247642D01*
X1806346Y-4249115D01*
X1804466Y-4250131D01*
X1802688Y-4250740D01*
X1800860Y-4250944D01*
X1798116Y-4250436D01*
X1796034Y-4248962D01*
X1794713Y-4246321D01*
X1794256Y-4242562D01*
X1794256Y-4206748D01*
X1809496Y-4206748D01*
X1809496Y-4201668D01*
X1794510Y-4201668D01*
X1795018Y-4186428D01*
G37*
G36*
X1948688Y-4186428D02*
G01*
X1945639Y-4201414D01*
X1935734Y-4202684D01*
X1935734Y-4206748D01*
X1945132Y-4206748D01*
X1945132Y-4242816D01*
X1945995Y-4248759D01*
X1948434Y-4252874D01*
X1952396Y-4255262D01*
X1957832Y-4256024D01*
X1961794Y-4255617D01*
X1965248Y-4254449D01*
X1968144Y-4252569D01*
X1970532Y-4250182D01*
X1968500Y-4247642D01*
X1966366Y-4249115D01*
X1964486Y-4250131D01*
X1962708Y-4250740D01*
X1960880Y-4250944D01*
X1958136Y-4250436D01*
X1956054Y-4248962D01*
X1954733Y-4246321D01*
X1954275Y-4242562D01*
X1954275Y-4206748D01*
X1969516Y-4206748D01*
X1969516Y-4201668D01*
X1954530Y-4201668D01*
X1955038Y-4186428D01*
G37*
G36*
X2236216Y-4186428D02*
G01*
X2233422Y-4201414D01*
X2223516Y-4202684D01*
X2223516Y-4206748D01*
X2232914Y-4206748D01*
X2232660Y-4242816D01*
X2233523Y-4248759D01*
X2236063Y-4252874D01*
X2240076Y-4255262D01*
X2245360Y-4256024D01*
X2249373Y-4255617D01*
X2252878Y-4254449D01*
X2255875Y-4252569D01*
X2258314Y-4250182D01*
X2256028Y-4247642D01*
X2253894Y-4249115D01*
X2252014Y-4250131D01*
X2250236Y-4250740D01*
X2248408Y-4250944D01*
X2245715Y-4250436D01*
X2243734Y-4248962D01*
X2242464Y-4246321D01*
X2242058Y-4242562D01*
X2242058Y-4206748D01*
X2257044Y-4206748D01*
X2257044Y-4201668D01*
X2242058Y-4201668D01*
X2242820Y-4186428D01*
G37*
G36*
X1744980Y-4200144D02*
G01*
X1740103Y-4200601D01*
X1735378Y-4201922D01*
X1731060Y-4204157D01*
X1727200Y-4207306D01*
X1723948Y-4211269D01*
X1721459Y-4216095D01*
X1719884Y-4221784D01*
X1719325Y-4228338D01*
X1729486Y-4228338D01*
X1730502Y-4218076D01*
X1733499Y-4210608D01*
X1738375Y-4206036D01*
X1744980Y-4204462D01*
X1751431Y-4206036D01*
X1756206Y-4210608D01*
X1759204Y-4218076D01*
X1760220Y-4228338D01*
X1759204Y-4238396D01*
X1756206Y-4245711D01*
X1751431Y-4250182D01*
X1744980Y-4251706D01*
X1738375Y-4250182D01*
X1733499Y-4245762D01*
X1730502Y-4238396D01*
X1729486Y-4228338D01*
X1719325Y-4228338D01*
X1719884Y-4234789D01*
X1721459Y-4240377D01*
X1723948Y-4245152D01*
X1727200Y-4249064D01*
X1731060Y-4252061D01*
X1735378Y-4254246D01*
X1740103Y-4255566D01*
X1744980Y-4256024D01*
X1749806Y-4255566D01*
X1754428Y-4254246D01*
X1758696Y-4252061D01*
X1762556Y-4249013D01*
X1765757Y-4245152D01*
X1768246Y-4240377D01*
X1769821Y-4234789D01*
X1770380Y-4228338D01*
X1769821Y-4221784D01*
X1768195Y-4216095D01*
X1765706Y-4211269D01*
X1762455Y-4207306D01*
X1758594Y-4204157D01*
X1754327Y-4201922D01*
X1749704Y-4200601D01*
G37*
G36*
X1841500Y-4200144D02*
G01*
X1836470Y-4200652D01*
X1831746Y-4202176D01*
X1827428Y-4204614D01*
X1823669Y-4207916D01*
X1820519Y-4211980D01*
X1818132Y-4216857D01*
X1816607Y-4222394D01*
X1816516Y-4223512D01*
X1826006Y-4223512D01*
X1827834Y-4214977D01*
X1831390Y-4209034D01*
X1836013Y-4205579D01*
X1840992Y-4204462D01*
X1846021Y-4205528D01*
X1849983Y-4208373D01*
X1852523Y-4212488D01*
X1853438Y-4217416D01*
X1853184Y-4219854D01*
X1852218Y-4221784D01*
X1850339Y-4223054D01*
X1847342Y-4223512D01*
X1816516Y-4223512D01*
X1816100Y-4228592D01*
X1816557Y-4234738D01*
X1817928Y-4240174D01*
X1820113Y-4244848D01*
X1823059Y-4248810D01*
X1826717Y-4251909D01*
X1830984Y-4254144D01*
X1835861Y-4255566D01*
X1841246Y-4256024D01*
X1848154Y-4255109D01*
X1853996Y-4252518D01*
X1858721Y-4248505D01*
X1862328Y-4243324D01*
X1860042Y-4241800D01*
X1856892Y-4244949D01*
X1853387Y-4247438D01*
X1849272Y-4249064D01*
X1844293Y-4249674D01*
X1836826Y-4248302D01*
X1831035Y-4244136D01*
X1827225Y-4237228D01*
X1825752Y-4227576D01*
X1861566Y-4227576D01*
X1862124Y-4224934D01*
X1862328Y-4221480D01*
X1860804Y-4212590D01*
X1856486Y-4205884D01*
X1849882Y-4201617D01*
G37*
G36*
X1909572Y-4200144D02*
G01*
X1904238Y-4200855D01*
X1898954Y-4202988D01*
X1893976Y-4206240D01*
X1889506Y-4210558D01*
X1888489Y-4201414D01*
X1886966Y-4200398D01*
X1871472Y-4206494D01*
X1871472Y-4209796D01*
X1880107Y-4210812D01*
X1880463Y-4217263D01*
X1880565Y-4235399D01*
X1880362Y-4249928D01*
X1871980Y-4250944D01*
X1871980Y-4254500D01*
X1897634Y-4254500D01*
X1897634Y-4250944D01*
X1890014Y-4249928D01*
X1889810Y-4240225D01*
X1889760Y-4214622D01*
X1893976Y-4211218D01*
X1897888Y-4208932D01*
X1901596Y-4207662D01*
X1905254Y-4207256D01*
X1909521Y-4207967D01*
X1912416Y-4210253D01*
X1914093Y-4214418D01*
X1914652Y-4220718D01*
X1914398Y-4249928D01*
X1906016Y-4250944D01*
X1906016Y-4254500D01*
X1931670Y-4254500D01*
X1931670Y-4250944D01*
X1923796Y-4249928D01*
X1923796Y-4220464D01*
X1922881Y-4211269D01*
X1920189Y-4204970D01*
X1915769Y-4201312D01*
G37*
G36*
X2035048Y-4200144D02*
G01*
X2030222Y-4200601D01*
X2025599Y-4201922D01*
X2021332Y-4204157D01*
X2017471Y-4207306D01*
X2014270Y-4211269D01*
X2011781Y-4216095D01*
X2010206Y-4221784D01*
X2009648Y-4228338D01*
X2019807Y-4228338D01*
X2020824Y-4218076D01*
X2023821Y-4210608D01*
X2028596Y-4206036D01*
X2035048Y-4204462D01*
X2041499Y-4206036D01*
X2046274Y-4210608D01*
X2049272Y-4218076D01*
X2050288Y-4228338D01*
X2049272Y-4238396D01*
X2046274Y-4245711D01*
X2041499Y-4250182D01*
X2035048Y-4251706D01*
X2028596Y-4250182D01*
X2023821Y-4245762D01*
X2020824Y-4238396D01*
X2019807Y-4228338D01*
X2009648Y-4228338D01*
X2010206Y-4234789D01*
X2011781Y-4240377D01*
X2014220Y-4245152D01*
X2017420Y-4249064D01*
X2021230Y-4252061D01*
X2025497Y-4254246D01*
X2030171Y-4255566D01*
X2035048Y-4256024D01*
X2039874Y-4255566D01*
X2044496Y-4254246D01*
X2048865Y-4252061D01*
X2052726Y-4249013D01*
X2055977Y-4245152D01*
X2058517Y-4240377D01*
X2060143Y-4234789D01*
X2060702Y-4228338D01*
X2060143Y-4221784D01*
X2058517Y-4216095D01*
X2055977Y-4211269D01*
X2052726Y-4207306D01*
X2048865Y-4204157D01*
X2044496Y-4201922D01*
X2039874Y-4200601D01*
G37*
G36*
X2106930Y-4200144D02*
G01*
X2101748Y-4200855D01*
X2096668Y-4202938D01*
X2091842Y-4206138D01*
X2087372Y-4210304D01*
X2086610Y-4201414D01*
X2085086Y-4200398D01*
X2069338Y-4206494D01*
X2069338Y-4209796D01*
X2078228Y-4210812D01*
X2078431Y-4217263D01*
X2078228Y-4249928D01*
X2070100Y-4250944D01*
X2070100Y-4254500D01*
X2095754Y-4254500D01*
X2095754Y-4250944D01*
X2087880Y-4249928D01*
X2087880Y-4214622D01*
X2091842Y-4211320D01*
X2095550Y-4209034D01*
X2099157Y-4207713D01*
X2102866Y-4207256D01*
X2106980Y-4207967D01*
X2109825Y-4210304D01*
X2111451Y-4214520D01*
X2112010Y-4220972D01*
X2111756Y-4249928D01*
X2103374Y-4250944D01*
X2103374Y-4254500D01*
X2129028Y-4254500D01*
X2129028Y-4250944D01*
X2121408Y-4249928D01*
X2121154Y-4220464D01*
X2120900Y-4214876D01*
X2125065Y-4211320D01*
X2128875Y-4208983D01*
X2132533Y-4207662D01*
X2136140Y-4207256D01*
X2140254Y-4207916D01*
X2143099Y-4210100D01*
X2144725Y-4214215D01*
X2145284Y-4220718D01*
X2145284Y-4249928D01*
X2136902Y-4250944D01*
X2136902Y-4254500D01*
X2162556Y-4254500D01*
X2162556Y-4250944D01*
X2154682Y-4249928D01*
X2154428Y-4219448D01*
X2153513Y-4210659D01*
X2150770Y-4204665D01*
X2146300Y-4201210D01*
X2140204Y-4200144D01*
X2134870Y-4200804D01*
X2129688Y-4202836D01*
X2124760Y-4206138D01*
X2120138Y-4210812D01*
X2118156Y-4206036D01*
X2115362Y-4202734D01*
X2111603Y-4200753D01*
G37*
G36*
X2196338Y-4200144D02*
G01*
X2191308Y-4200652D01*
X2186533Y-4202176D01*
X2182215Y-4204614D01*
X2178354Y-4207916D01*
X2175205Y-4211980D01*
X2172766Y-4216857D01*
X2171242Y-4222394D01*
X2171142Y-4223512D01*
X2180590Y-4223512D01*
X2182520Y-4214977D01*
X2186127Y-4209034D01*
X2190750Y-4205579D01*
X2195830Y-4204462D01*
X2200757Y-4205528D01*
X2204618Y-4208373D01*
X2207107Y-4212488D01*
X2208022Y-4217416D01*
X2207768Y-4219854D01*
X2206904Y-4221784D01*
X2205126Y-4223054D01*
X2202180Y-4223512D01*
X2171142Y-4223512D01*
X2170684Y-4228592D01*
X2171141Y-4234738D01*
X2172512Y-4240174D01*
X2174697Y-4244848D01*
X2177643Y-4248810D01*
X2181301Y-4251909D01*
X2185568Y-4254144D01*
X2190445Y-4255566D01*
X2195830Y-4256024D01*
X2202738Y-4255109D01*
X2208580Y-4252518D01*
X2213305Y-4248505D01*
X2216912Y-4243324D01*
X2214626Y-4241800D01*
X2211578Y-4244949D01*
X2208123Y-4247438D01*
X2204008Y-4249064D01*
X2199132Y-4249674D01*
X2191664Y-4248302D01*
X2185873Y-4244136D01*
X2182063Y-4237228D01*
X2180590Y-4227576D01*
X2216404Y-4227576D01*
X2216962Y-4224934D01*
X2217166Y-4221480D01*
X2215591Y-4212590D01*
X2211222Y-4205884D01*
X2204618Y-4201617D01*
G37*
G36*
X2289302Y-4200144D02*
G01*
X2284272Y-4200652D01*
X2279497Y-4202176D01*
X2275179Y-4204614D01*
X2271318Y-4207916D01*
X2268169Y-4211980D01*
X2265730Y-4216857D01*
X2264206Y-4222394D01*
X2264106Y-4223512D01*
X2273554Y-4223512D01*
X2275484Y-4214977D01*
X2279091Y-4209034D01*
X2283714Y-4205579D01*
X2288794Y-4204462D01*
X2293721Y-4205528D01*
X2297531Y-4208373D01*
X2300071Y-4212488D01*
X2300986Y-4217416D01*
X2300732Y-4219854D01*
X2299868Y-4221784D01*
X2298090Y-4223054D01*
X2295144Y-4223512D01*
X2264106Y-4223512D01*
X2263648Y-4228592D01*
X2264105Y-4234738D01*
X2265476Y-4240174D01*
X2267661Y-4244848D01*
X2270607Y-4248810D01*
X2274265Y-4251909D01*
X2278532Y-4254144D01*
X2283409Y-4255566D01*
X2288794Y-4256024D01*
X2295702Y-4255109D01*
X2301544Y-4252518D01*
X2306269Y-4248505D01*
X2309876Y-4243324D01*
X2307590Y-4241800D01*
X2304542Y-4244949D01*
X2301087Y-4247438D01*
X2296972Y-4249064D01*
X2292096Y-4249674D01*
X2284628Y-4248302D01*
X2278837Y-4244136D01*
X2275027Y-4237228D01*
X2273554Y-4227576D01*
X2309368Y-4227576D01*
X2309926Y-4224934D01*
X2310130Y-4221480D01*
X2308555Y-4212590D01*
X2304186Y-4205884D01*
X2297582Y-4201617D01*
G37*
G36*
X2353564Y-4200144D02*
G01*
X2348941Y-4201160D01*
X2344470Y-4204055D01*
X2340508Y-4208729D01*
X2337308Y-4214876D01*
X2336292Y-4201414D01*
X2334768Y-4200398D01*
X2319020Y-4206494D01*
X2319020Y-4209796D01*
X2327910Y-4210812D01*
X2328113Y-4217263D01*
X2327910Y-4249928D01*
X2319782Y-4250944D01*
X2319782Y-4254500D01*
X2346960Y-4254500D01*
X2346960Y-4250944D01*
X2337562Y-4249674D01*
X2337308Y-4222496D01*
X2339136Y-4217771D01*
X2341270Y-4213809D01*
X2343861Y-4210507D01*
X2346960Y-4207764D01*
X2348484Y-4208780D01*
X2350008Y-4210151D01*
X2351633Y-4211218D01*
X2353360Y-4211828D01*
X2355342Y-4212082D01*
X2358136Y-4211523D01*
X2360117Y-4209999D01*
X2361285Y-4207560D01*
X2361692Y-4204462D01*
X2360269Y-4202633D01*
X2358390Y-4201261D01*
X2356104Y-4200448D01*
G37*
G36*
X1991614Y-4200398D02*
G01*
X1974596Y-4206240D01*
X1974596Y-4209796D01*
X1983486Y-4210558D01*
X1983689Y-4217365D01*
X1983739Y-4249928D01*
X1975104Y-4250944D01*
X1975104Y-4254500D01*
X2000757Y-4254500D01*
X2000757Y-4250944D01*
X1993138Y-4249928D01*
X1992934Y-4240225D01*
X1992884Y-4216146D01*
X1993138Y-4201414D01*
G37*
D10*
X3885669Y-2654711D02*
G01*
X3994635Y-2654711D01*
X3885669Y-2654711D02*
G01*
X3885669Y-2607975D01*
X3890749Y-2592481D01*
X3896083Y-2587147D01*
X3906497Y-2582067D01*
X3916911Y-2582067D01*
X3927325Y-2587147D01*
X3932405Y-2592481D01*
X3937485Y-2607975D01*
X3937485Y-2654711D01*
X3937485Y-2618389D02*
G01*
X3994635Y-2582067D01*
X3911577Y-2542443D02*
G01*
X3906497Y-2542443D01*
X3896083Y-2537363D01*
X3890749Y-2532283D01*
X3885669Y-2521869D01*
X3885669Y-2501041D01*
X3890749Y-2490627D01*
X3896083Y-2485293D01*
X3906497Y-2480213D01*
X3916911Y-2480213D01*
X3927325Y-2485293D01*
X3942819Y-2495707D01*
X3994635Y-2547777D01*
X3994635Y-2475133D01*
X-4789761Y3045797D02*
G01*
X-4680795Y3045797D01*
X-4789761Y3009475D02*
G01*
X-4789761Y3082119D01*
X-4789761Y3116409D02*
G01*
X-4680795Y3116409D01*
X-4789761Y3116409D02*
G01*
X-4789761Y3163145D01*
X-4784681Y3178893D01*
X-4779347Y3183973D01*
X-4768933Y3189053D01*
X-4753439Y3189053D01*
X-4743025Y3183973D01*
X-4737945Y3178893D01*
X-4732611Y3163145D01*
X-4732611Y3116409D01*
X-4789761Y3223343D02*
G01*
X-4680795Y3223343D01*
X-4680795Y3223343D02*
G01*
X-4680795Y3285827D01*
X-4789761Y3462357D02*
G01*
X-4789761Y3410541D01*
X-4743025Y3405207D01*
X-4748105Y3410541D01*
X-4753439Y3426035D01*
X-4753439Y3441783D01*
X-4748105Y3457277D01*
X-4737945Y3467691D01*
X-4722197Y3472771D01*
X-4711783Y3472771D01*
X-4696289Y3467691D01*
X-4685875Y3457277D01*
X-4680795Y3441783D01*
X-4680795Y3426035D01*
X-4685875Y3410541D01*
X-4690955Y3405207D01*
X-4701369Y3400127D01*
X-4768933Y3507061D02*
G01*
X-4774267Y3517475D01*
X-4789761Y3533223D01*
X-4680795Y3533223D01*
X-4768933Y3567513D02*
G01*
X-4774267Y3577673D01*
X-4789761Y3593421D01*
X-4680795Y3593421D01*
X-4789761Y3658953D02*
G01*
X-4784681Y3643205D01*
X-4768933Y3632791D01*
X-4743025Y3627711D01*
X-4727531Y3627711D01*
X-4701369Y3632791D01*
X-4685875Y3643205D01*
X-4680795Y3658953D01*
X-4680795Y3669113D01*
X-4685875Y3684861D01*
X-4701369Y3695275D01*
X-4727531Y3700355D01*
X-4743025Y3700355D01*
X-4768933Y3695275D01*
X-4784681Y3684861D01*
X-4789761Y3669113D01*
X-4789761Y3658953D01*
X-4611961Y3009475D02*
G01*
X-4533983Y3009475D01*
X-4518489Y3014555D01*
X-4508075Y3024969D01*
X-4502995Y3040463D01*
X-4502995Y3050877D01*
X-4508075Y3066625D01*
X-4518489Y3077039D01*
X-4533983Y3082119D01*
X-4611961Y3082119D01*
X-4591133Y3116409D02*
G01*
X-4596467Y3126823D01*
X-4611961Y3142317D01*
X-4502995Y3142317D01*
D11*
X-1626369Y2448821D02*
G01*
X-1700283Y2642623D01*
X-1774197Y2448821D02*
G01*
X-1700283Y2642623D01*
X-1835157Y2448821D02*
G01*
X-1835157Y2642623D01*
X-1835157Y2448821D02*
G01*
X-1899673Y2448821D01*
X-1927359Y2457965D01*
X-1945901Y2476507D01*
X-1955299Y2495049D01*
X-1964443Y2522735D01*
X-1964443Y2568709D01*
X-1955299Y2596649D01*
X-1945901Y2614937D01*
X-1927359Y2633479D01*
X-1899673Y2642623D01*
X-1835157Y2642623D01*
X-2025403Y2448821D02*
G01*
X-2025403Y2642623D01*
X-2025403Y2448821D02*
G01*
X-2089919Y2448821D01*
X-2117859Y2457965D01*
X-2136147Y2476507D01*
X-2145545Y2495049D01*
X-2154689Y2522735D01*
X-2154689Y2568709D01*
X-2145545Y2596649D01*
X-2136147Y2614937D01*
X-2117859Y2633479D01*
X-2089919Y2642623D01*
X-2025403Y2642623D01*
D10*
X4063476Y-1740319D02*
G01*
X4172442Y-1740319D01*
X4063476Y-1740319D02*
G01*
X4172442Y-1698917D01*
X4063476Y-1657261D02*
G01*
X4172442Y-1698917D01*
X4063476Y-1657261D02*
G01*
X4172442Y-1657261D01*
X4099798Y-1597063D02*
G01*
X4105132Y-1607477D01*
X4115292Y-1617891D01*
X4131040Y-1622971D01*
X4141454Y-1622971D01*
X4156948Y-1617891D01*
X4167362Y-1607477D01*
X4172442Y-1597063D01*
X4172442Y-1581315D01*
X4167362Y-1570901D01*
X4156948Y-1560741D01*
X4141454Y-1555407D01*
X4131040Y-1555407D01*
X4115292Y-1560741D01*
X4105132Y-1570901D01*
X4099798Y-1581315D01*
X4099798Y-1597063D01*
X4099798Y-1521117D02*
G01*
X4172442Y-1489875D01*
X4099798Y-1458887D02*
G01*
X4172442Y-1489875D01*
X4131040Y-1424597D02*
G01*
X4131040Y-1362113D01*
X4120626Y-1362113D01*
X4110212Y-1367447D01*
X4105132Y-1372527D01*
X4099798Y-1382941D01*
X4099798Y-1398435D01*
X4105132Y-1408849D01*
X4115292Y-1419263D01*
X4131040Y-1424597D01*
X4141454Y-1424597D01*
X4156948Y-1419263D01*
X4167362Y-1408849D01*
X4172442Y-1398435D01*
X4172442Y-1382941D01*
X4167362Y-1372527D01*
X4156948Y-1362113D01*
X4099798Y-1327823D02*
G01*
X4172442Y-1327823D01*
X4120626Y-1327823D02*
G01*
X4105132Y-1312329D01*
X4099798Y-1301915D01*
X4099798Y-1286421D01*
X4105132Y-1276007D01*
X4120626Y-1270673D01*
X4172442Y-1270673D01*
X4120626Y-1270673D02*
G01*
X4105132Y-1255179D01*
X4099798Y-1244765D01*
X4099798Y-1229271D01*
X4105132Y-1218857D01*
X4120626Y-1213523D01*
X4172442Y-1213523D01*
X4131040Y-1179233D02*
G01*
X4131040Y-1117003D01*
X4120626Y-1117003D01*
X4110212Y-1122083D01*
X4105132Y-1127417D01*
X4099798Y-1137831D01*
X4099798Y-1153325D01*
X4105132Y-1163739D01*
X4115292Y-1174153D01*
X4131040Y-1179233D01*
X4141454Y-1179233D01*
X4156948Y-1174153D01*
X4167362Y-1163739D01*
X4172442Y-1153325D01*
X4172442Y-1137831D01*
X4167362Y-1127417D01*
X4156948Y-1117003D01*
X4099798Y-1082713D02*
G01*
X4172442Y-1082713D01*
X4120626Y-1082713D02*
G01*
X4105132Y-1066965D01*
X4099798Y-1056551D01*
X4099798Y-1041057D01*
X4105132Y-1030643D01*
X4120626Y-1025563D01*
X4172442Y-1025563D01*
X4063476Y-975525D02*
G01*
X4151868Y-975525D01*
X4167362Y-970445D01*
X4172442Y-960031D01*
X4172442Y-949617D01*
X4099798Y-991273D02*
G01*
X4099798Y-954951D01*
X4089384Y-757339D02*
G01*
X4078970Y-762673D01*
X4068556Y-773087D01*
X4063476Y-783501D01*
X4063476Y-804075D01*
X4068556Y-814489D01*
X4078970Y-824903D01*
X4089384Y-830237D01*
X4105132Y-835317D01*
X4131040Y-835317D01*
X4146534Y-830237D01*
X4156948Y-824903D01*
X4167362Y-814489D01*
X4172442Y-804075D01*
X4172442Y-783501D01*
X4167362Y-773087D01*
X4156948Y-762673D01*
X4146534Y-757339D01*
X4131040Y-757339D01*
X4131040Y-783501D02*
G01*
X4131040Y-757339D01*
X4063476Y-723049D02*
G01*
X4172442Y-723049D01*
X4063476Y-650405D02*
G01*
X4172442Y-650405D01*
X4115292Y-723049D02*
G01*
X4115292Y-650405D01*
X4125706Y-616115D02*
G01*
X4125706Y-522643D01*
X4063476Y-415455D02*
G01*
X4172442Y-467525D01*
X4063476Y-488353D02*
G01*
X4063476Y-415455D01*
X4084304Y-381165D02*
G01*
X4078970Y-370751D01*
X4063476Y-355257D01*
X4172442Y-355257D01*
X4063476Y-295059D02*
G01*
X4068556Y-310553D01*
X4078970Y-315887D01*
X4089384Y-315887D01*
X4099798Y-310553D01*
X4105132Y-300139D01*
X4110212Y-279311D01*
X4115292Y-263817D01*
X4125706Y-253403D01*
X4136120Y-248323D01*
X4151868Y-248323D01*
X4162282Y-253403D01*
X4167362Y-258737D01*
X4172442Y-274231D01*
X4172442Y-295059D01*
X4167362Y-310553D01*
X4162282Y-315887D01*
X4151868Y-320967D01*
X4136120Y-320967D01*
X4125706Y-315887D01*
X4115292Y-305473D01*
X4110212Y-289725D01*
X4105132Y-269151D01*
X4099798Y-258737D01*
X4089384Y-253403D01*
X4078970Y-253403D01*
X4068556Y-258737D01*
X4063476Y-274231D01*
X4063476Y-295059D01*
X4241276Y-1435521D02*
G01*
X4319254Y-1435521D01*
X4334748Y-1430441D01*
X4345162Y-1420027D01*
X4350242Y-1404533D01*
X4350242Y-1394119D01*
X4345162Y-1378371D01*
X4334748Y-1367957D01*
X4319254Y-1362877D01*
X4241276Y-1362877D01*
X4241276Y-1318173D02*
G01*
X4241276Y-1261023D01*
X4282932Y-1292265D01*
X4282932Y-1276517D01*
X4288012Y-1266103D01*
X4293092Y-1261023D01*
X4308840Y-1255943D01*
X4319254Y-1255943D01*
X4334748Y-1261023D01*
X4345162Y-1271437D01*
X4350242Y-1286931D01*
X4350242Y-1302679D01*
X4345162Y-1318173D01*
X4340082Y-1323253D01*
X4329668Y-1328587D01*
X-4684097Y-1007280D02*
G01*
X-4694511Y-1017694D01*
X-4699591Y-1033188D01*
X-4699591Y-1054016D01*
X-4694511Y-1069510D01*
X-4684097Y-1079924D01*
X-4673683Y-1079924D01*
X-4663269Y-1074844D01*
X-4657935Y-1069510D01*
X-4652855Y-1059096D01*
X-4642441Y-1028108D01*
X-4637361Y-1017694D01*
X-4632027Y-1012360D01*
X-4621613Y-1007280D01*
X-4606119Y-1007280D01*
X-4595705Y-1017694D01*
X-4590625Y-1033188D01*
X-4590625Y-1054016D01*
X-4595705Y-1069510D01*
X-4606119Y-1079924D01*
X-4673683Y-895012D02*
G01*
X-4684097Y-900346D01*
X-4694511Y-910506D01*
X-4699591Y-920920D01*
X-4699591Y-941748D01*
X-4694511Y-952162D01*
X-4684097Y-962576D01*
X-4673683Y-967656D01*
X-4657935Y-972990D01*
X-4632027Y-972990D01*
X-4616533Y-967656D01*
X-4606119Y-962576D01*
X-4595705Y-952162D01*
X-4590625Y-941748D01*
X-4590625Y-920920D01*
X-4595705Y-910506D01*
X-4606119Y-900346D01*
X-4616533Y-895012D01*
X-4699591Y-860722D02*
G01*
X-4590625Y-860722D01*
X-4699591Y-860722D02*
G01*
X-4699591Y-824400D01*
X-4694511Y-808906D01*
X-4684097Y-798492D01*
X-4673683Y-793158D01*
X-4657935Y-788078D01*
X-4632027Y-788078D01*
X-4616533Y-793158D01*
X-4606119Y-798492D01*
X-4595705Y-808906D01*
X-4590625Y-824400D01*
X-4590625Y-860722D01*
X-4699591Y-663364D02*
G01*
X-4699591Y-606214D01*
X-4657935Y-637456D01*
X-4657935Y-621708D01*
X-4652855Y-611294D01*
X-4647775Y-606214D01*
X-4632027Y-600880D01*
X-4621613Y-600880D01*
X-4606119Y-606214D01*
X-4595705Y-616628D01*
X-4590625Y-632122D01*
X-4590625Y-647616D01*
X-4595705Y-663364D01*
X-4600785Y-668444D01*
X-4611199Y-673778D01*
X-4699591Y-535602D02*
G01*
X-4694511Y-551096D01*
X-4678763Y-561510D01*
X-4652855Y-566590D01*
X-4637361Y-566590D01*
X-4611199Y-561510D01*
X-4595705Y-551096D01*
X-4590625Y-535602D01*
X-4590625Y-525188D01*
X-4595705Y-509440D01*
X-4611199Y-499026D01*
X-4637361Y-493946D01*
X-4652855Y-493946D01*
X-4678763Y-499026D01*
X-4694511Y-509440D01*
X-4699591Y-525188D01*
X-4699591Y-535602D01*
X-4673683Y-301668D02*
G01*
X-4684097Y-307002D01*
X-4694511Y-317416D01*
X-4699591Y-327576D01*
X-4699591Y-348404D01*
X-4694511Y-358818D01*
X-4684097Y-369232D01*
X-4673683Y-374566D01*
X-4657935Y-379646D01*
X-4632027Y-379646D01*
X-4616533Y-374566D01*
X-4606119Y-369232D01*
X-4595705Y-358818D01*
X-4590625Y-348404D01*
X-4590625Y-327576D01*
X-4595705Y-317416D01*
X-4606119Y-307002D01*
X-4616533Y-301668D01*
X-4699591Y-236136D02*
G01*
X-4694511Y-246550D01*
X-4684097Y-256964D01*
X-4673683Y-262298D01*
X-4657935Y-267378D01*
X-4632027Y-267378D01*
X-4616533Y-262298D01*
X-4606119Y-256964D01*
X-4595705Y-246550D01*
X-4590625Y-236136D01*
X-4590625Y-215562D01*
X-4595705Y-205148D01*
X-4606119Y-194734D01*
X-4616533Y-189400D01*
X-4632027Y-184320D01*
X-4657935Y-184320D01*
X-4673683Y-189400D01*
X-4684097Y-194734D01*
X-4694511Y-205148D01*
X-4699591Y-215562D01*
X-4699591Y-236136D01*
X-4673683Y-144696D02*
G01*
X-4678763Y-144696D01*
X-4689177Y-139616D01*
X-4694511Y-134536D01*
X-4699591Y-124122D01*
X-4699591Y-103294D01*
X-4694511Y-92880D01*
X-4689177Y-87546D01*
X-4678763Y-82466D01*
X-4668349Y-82466D01*
X-4657935Y-87546D01*
X-4642441Y-97960D01*
X-4590625Y-150030D01*
X-4590625Y-77386D01*
X-4521791Y-1079924D02*
G01*
X-4443813Y-1079924D01*
X-4428319Y-1074844D01*
X-4417905Y-1064430D01*
X-4412825Y-1048936D01*
X-4412825Y-1038522D01*
X-4417905Y-1022774D01*
X-4428319Y-1012360D01*
X-4443813Y-1007280D01*
X-4521791Y-1007280D01*
X-4521791Y-920920D02*
G01*
X-4449147Y-972990D01*
X-4449147Y-895012D01*
X-4521791Y-920920D02*
G01*
X-4412825Y-920920D01*
D11*
X-1459997Y-3012170D02*
G01*
X-1533911Y-2818368D01*
X-1607825Y-3012170D02*
G01*
X-1533911Y-2818368D01*
X-1668785Y-3012170D02*
G01*
X-1668785Y-2818368D01*
X-1729745Y-3012170D02*
G01*
X-1729745Y-2818368D01*
X-1729745Y-3012170D02*
G01*
X-1859031Y-2818368D01*
X-1859031Y-3012170D02*
G01*
X-1859031Y-2818368D01*
D10*
X4918448Y913899D02*
G01*
X4918448Y976129D01*
X4908034Y976129D01*
X4897620Y971049D01*
X4892540Y965969D01*
X4887206Y955555D01*
X4887206Y939807D01*
X4892540Y929393D01*
X4902700Y918979D01*
X4918448Y913899D01*
X4928862Y913899D01*
X4944356Y918979D01*
X4954770Y929393D01*
X4959850Y939807D01*
X4959850Y955555D01*
X4954770Y965969D01*
X4944356Y976129D01*
X4850884Y1010419D02*
G01*
X4959850Y1010419D01*
X4887206Y1044709D02*
G01*
X4959850Y1044709D01*
X4908034Y1044709D02*
G01*
X4892540Y1060457D01*
X4887206Y1070871D01*
X4887206Y1086365D01*
X4892540Y1096779D01*
X4908034Y1101859D01*
X4959850Y1101859D01*
X4850884Y1136149D02*
G01*
X4959850Y1136149D01*
X4887206Y1188219D02*
G01*
X4939276Y1136149D01*
X4918448Y1156977D02*
G01*
X4959850Y1193299D01*
X4850884Y1307599D02*
G01*
X4959850Y1307599D01*
X4850884Y1307599D02*
G01*
X4850884Y1354589D01*
X4855964Y1370083D01*
X4861298Y1375163D01*
X4871712Y1380497D01*
X4882126Y1380497D01*
X4892540Y1375163D01*
X4897620Y1370083D01*
X4902700Y1354589D01*
X4902700Y1307599D02*
G01*
X4902700Y1354589D01*
X4908034Y1370083D01*
X4913114Y1375163D01*
X4923528Y1380497D01*
X4939276Y1380497D01*
X4949690Y1375163D01*
X4954770Y1370083D01*
X4959850Y1354589D01*
X4959850Y1307599D01*
X4887206Y1414787D02*
G01*
X4959850Y1414787D01*
X4918448Y1414787D02*
G01*
X4902700Y1419867D01*
X4892540Y1430281D01*
X4887206Y1440695D01*
X4887206Y1456189D01*
X4918448Y1490479D02*
G01*
X4918448Y1552963D01*
X4908034Y1552963D01*
X4897620Y1547629D01*
X4892540Y1542549D01*
X4887206Y1532135D01*
X4887206Y1516641D01*
X4892540Y1506227D01*
X4902700Y1495813D01*
X4918448Y1490479D01*
X4928862Y1490479D01*
X4944356Y1495813D01*
X4954770Y1506227D01*
X4959850Y1516641D01*
X4959850Y1532135D01*
X4954770Y1542549D01*
X4944356Y1552963D01*
X4887206Y1649483D02*
G01*
X4959850Y1649483D01*
X4902700Y1649483D02*
G01*
X4892540Y1639069D01*
X4887206Y1628909D01*
X4887206Y1613161D01*
X4892540Y1602747D01*
X4902700Y1592333D01*
X4918448Y1587253D01*
X4928862Y1587253D01*
X4944356Y1592333D01*
X4954770Y1602747D01*
X4959850Y1613161D01*
X4959850Y1628909D01*
X4954770Y1639069D01*
X4944356Y1649483D01*
X4850884Y1683773D02*
G01*
X4959850Y1683773D01*
X4887206Y1735843D02*
G01*
X4939276Y1683773D01*
X4918448Y1704601D02*
G01*
X4959850Y1740923D01*
X4887206Y1801375D02*
G01*
X4892540Y1790961D01*
X4902700Y1780547D01*
X4918448Y1775213D01*
X4928862Y1775213D01*
X4944356Y1780547D01*
X4954770Y1790961D01*
X4959850Y1801375D01*
X4959850Y1816869D01*
X4954770Y1827283D01*
X4944356Y1837697D01*
X4928862Y1842777D01*
X4918448Y1842777D01*
X4902700Y1837697D01*
X4892540Y1827283D01*
X4887206Y1816869D01*
X4887206Y1801375D01*
X4887206Y1877067D02*
G01*
X4939276Y1877067D01*
X4954770Y1882401D01*
X4959850Y1892815D01*
X4959850Y1908309D01*
X4954770Y1918723D01*
X4939276Y1934217D01*
X4887206Y1934217D02*
G01*
X4959850Y1934217D01*
X4850884Y1984255D02*
G01*
X4939276Y1984255D01*
X4954770Y1989335D01*
X4959850Y1999749D01*
X4959850Y2010163D01*
X4887206Y1968507D02*
G01*
X4887206Y2004829D01*
X4965870Y2298123D02*
G01*
X4887892Y2298123D01*
X4872398Y2293043D01*
X4861984Y2282629D01*
X4856904Y2267135D01*
X4856904Y2256721D01*
X4861984Y2240973D01*
X4872398Y2230559D01*
X4887892Y2225479D01*
X4965870Y2225479D01*
X4965870Y2128705D02*
G01*
X4965870Y2180775D01*
X4919134Y2185855D01*
X4924214Y2180775D01*
X4929548Y2165281D01*
X4929548Y2149533D01*
X4924214Y2134039D01*
X4914054Y2123625D01*
X4898306Y2118545D01*
X4887892Y2118545D01*
X4872398Y2123625D01*
X4861984Y2134039D01*
X4856904Y2149533D01*
X4856904Y2165281D01*
X4861984Y2180775D01*
X4867064Y2185855D01*
X4877478Y2191189D01*
D11*
X1955030Y3747777D02*
G01*
X2028944Y3553975D01*
X2102858Y3747777D02*
G01*
X2028944Y3553975D01*
X2163818Y3747777D02*
G01*
X2163818Y3553975D01*
X2224778Y3747777D02*
G01*
X2224778Y3553975D01*
X2224778Y3747777D02*
G01*
X2354064Y3553975D01*
X2354064Y3747777D02*
G01*
X2354064Y3553975D01*
D10*
X-1462361Y545675D02*
G01*
X-1353395Y545675D01*
X-1462361Y545675D02*
G01*
X-1353395Y587077D01*
X-1462361Y628733D02*
G01*
X-1353395Y587077D01*
X-1462361Y628733D02*
G01*
X-1353395Y628733D01*
X-1462361Y663023D02*
G01*
X-1353395Y663023D01*
X-1462361Y735667D02*
G01*
X-1389717Y663023D01*
X-1415625Y688931D02*
G01*
X-1353395Y735667D01*
X-1462361Y769957D02*
G01*
X-1353395Y769957D01*
X-1462361Y769957D02*
G01*
X-1462361Y816693D01*
X-1457281Y832441D01*
X-1451947Y837521D01*
X-1441533Y842855D01*
X-1431119Y842855D01*
X-1420705Y837521D01*
X-1415625Y832441D01*
X-1410545Y816693D01*
X-1410545Y769957D01*
X-1410545Y806533D02*
G01*
X-1353395Y842855D01*
X-1462361Y877145D02*
G01*
X-1353395Y903053D01*
X-1462361Y928961D02*
G01*
X-1353395Y903053D01*
X-1462361Y928961D02*
G01*
X-1353395Y955123D01*
X-1462361Y981031D02*
G01*
X-1353395Y955123D01*
X-1462361Y1056723D02*
G01*
X-1353395Y1015321D01*
X-1462361Y1056723D02*
G01*
X-1353395Y1098379D01*
X-1389717Y1030815D02*
G01*
X-1389717Y1082885D01*
X-1462361Y1132669D02*
G01*
X-1353395Y1132669D01*
X-1462361Y1132669D02*
G01*
X-1353395Y1205313D01*
X-1462361Y1205313D02*
G01*
X-1353395Y1205313D01*
X-1441533Y1319613D02*
G01*
X-1446867Y1330027D01*
X-1462361Y1345775D01*
X-1353395Y1345775D01*
X-1462361Y1390479D02*
G01*
X-1462361Y1447629D01*
X-1420705Y1416387D01*
X-1420705Y1431881D01*
X-1415625Y1442295D01*
X-1410545Y1447629D01*
X-1394797Y1452709D01*
X-1384383Y1452709D01*
X-1368889Y1447629D01*
X-1358475Y1437215D01*
X-1353395Y1421467D01*
X-1353395Y1405973D01*
X-1358475Y1390479D01*
X-1363555Y1385145D01*
X-1373969Y1380065D01*
X-1441533Y1486999D02*
G01*
X-1446867Y1497413D01*
X-1462361Y1512907D01*
X-1353395Y1512907D01*
X-1462361Y1578439D02*
G01*
X-1457281Y1562945D01*
X-1441533Y1552531D01*
X-1415625Y1547197D01*
X-1400131Y1547197D01*
X-1373969Y1552531D01*
X-1358475Y1562945D01*
X-1353395Y1578439D01*
X-1353395Y1588853D01*
X-1358475Y1604347D01*
X-1373969Y1614761D01*
X-1400131Y1620095D01*
X-1415625Y1620095D01*
X-1441533Y1614761D01*
X-1457281Y1604347D01*
X-1462361Y1588853D01*
X-1462361Y1578439D01*
X-1284561Y545675D02*
G01*
X-1206583Y545675D01*
X-1191089Y550755D01*
X-1180675Y561169D01*
X-1175595Y576663D01*
X-1175595Y587077D01*
X-1180675Y602825D01*
X-1191089Y613239D01*
X-1206583Y618319D01*
X-1284561Y618319D01*
X-1269067Y715093D02*
G01*
X-1279481Y709759D01*
X-1284561Y694265D01*
X-1284561Y683851D01*
X-1279481Y668103D01*
X-1263733Y657943D01*
X-1237825Y652609D01*
X-1211917Y652609D01*
X-1191089Y657943D01*
X-1180675Y668103D01*
X-1175595Y683851D01*
X-1175595Y688931D01*
X-1180675Y704679D01*
X-1191089Y715093D01*
X-1206583Y720173D01*
X-1211917Y720173D01*
X-1227411Y715093D01*
X-1237825Y704679D01*
X-1242905Y688931D01*
X-1242905Y683851D01*
X-1237825Y668103D01*
X-1227411Y657943D01*
X-1211917Y652609D01*
D11*
X1760971Y-1107683D02*
G01*
X1816597Y-961379D01*
X1760971Y-1107683D02*
G01*
X1705091Y-961379D01*
X1795769Y-1010147D02*
G01*
X1726173Y-1010147D01*
X1659117Y-1107683D02*
G01*
X1659117Y-961379D01*
X1659117Y-1107683D02*
G01*
X1596633Y-1107683D01*
X1575551Y-1100571D01*
X1568693Y-1093713D01*
X1561835Y-1079743D01*
X1561835Y-1065773D01*
X1568693Y-1051803D01*
X1575551Y-1044945D01*
X1596633Y-1037833D01*
X1659117Y-1037833D01*
X1610349Y-1037833D02*
G01*
X1561835Y-961379D01*
X1515861Y-1107683D02*
G01*
X1515861Y-961379D01*
X1515861Y-1107683D02*
G01*
X1425183Y-1107683D01*
X1515861Y-1037833D02*
G01*
X1459981Y-1037833D01*
X1515861Y-961379D02*
G01*
X1425183Y-961379D01*
X1379209Y-1107683D02*
G01*
X1379209Y-961379D01*
X1379209Y-1107683D02*
G01*
X1288785Y-1107683D01*
X1379209Y-1037833D02*
G01*
X1323583Y-1037833D01*
D10*
X2692908Y-2935239D02*
G01*
X2692908Y-2857261D01*
X2687827Y-2841767D01*
X2677413Y-2831353D01*
X2661665Y-2826273D01*
X2651252Y-2826273D01*
X2635758Y-2831353D01*
X2625343Y-2841767D01*
X2620263Y-2857261D01*
X2620263Y-2935239D01*
X2580640Y-2909331D02*
G01*
X2580640Y-2914411D01*
X2575559Y-2924825D01*
X2570225Y-2930159D01*
X2559811Y-2935239D01*
X2539238Y-2935239D01*
X2528824Y-2930159D01*
X2523490Y-2924825D01*
X2518409Y-2914411D01*
X2518409Y-2903997D01*
X2523490Y-2893583D01*
X2533904Y-2878089D01*
X2585974Y-2826273D01*
X2513075Y-2826273D01*
X-4108787Y2087582D02*
G01*
X-4108787Y4032818D01*
X-2293551Y4032818D01*
X-2293551Y2087582D01*
X-4108787Y2087582D01*
X-4310997Y-3529195D02*
G01*
X-4310997Y1470794D01*
X-1911002Y1470794D01*
X-1911002Y-3529195D01*
X-4310997Y-3529195D01*
X4655228Y4447395D02*
G01*
X4655228Y47404D01*
X2455232Y47404D01*
X2455232Y4447395D01*
X4655228Y4447395D01*
X-1143769Y3695199D02*
G01*
X1371465Y3695199D01*
X1362473Y3701445D02*
G01*
X1362473Y-3083780D01*
X-1152761Y-3083780D02*
G01*
X-1152761Y3701445D01*
X1374856Y-3098192D02*
G01*
X-1140378Y-3098192D01*
D12*
G75*
G01
X-3186151Y1997583D02*
G03X-3186151Y1997583I-15011J0D01*
G75*
G01
X3595649Y-2434717D02*
G03X3595649Y-2434717I-15011J0D01*
G75*
G01
X-3095981Y-2876829D02*
G03X-3095981Y-2876829I-15011J0D01*
G75*
G01
X3570249Y4080002D02*
G03X3570249Y4080002I-15011J0D01*
G75*
G01
X1157249Y-3188208D02*
G03X1157249Y-3188208I-15011J0D01*
G75*
G01
X3723919Y-2515108D02*
G03X3723919Y-2515108I-15011J0D01*
M02*
