G04 Layer: TopLayer*
G04 EasyEDA v6.5.22, 2023-01-26 08:19:38*
G04 8426a333df6747daab18ef12c2f6586b,10*
G04 Gerber Generator version 0.2*
G04 Scale: 100 percent, Rotated: No, Reflected: No *
G04 Dimensions in millimeters *
G04 leading zeros omitted , absolute positions ,4 integer and 5 decimal *
%FSLAX45Y45*%
%MOMM*%

%ADD10C,0.2032*%
%ADD11C,0.5000*%
%ADD12C,1.5240*%
%ADD13R,1.5000X1.5000*%
%ADD14C,1.5000*%

%LPD*%
D10*
X-3837947Y2540769D02*
G01*
X-3644145Y2540769D01*
X-3837947Y2475999D02*
G01*
X-3837947Y2605285D01*
X-3837947Y2666245D02*
G01*
X-3644145Y2666245D01*
X-3837947Y2666245D02*
G01*
X-3837947Y2749303D01*
X-3828803Y2776989D01*
X-3819659Y2786387D01*
X-3801117Y2795531D01*
X-3773431Y2795531D01*
X-3754889Y2786387D01*
X-3745745Y2776989D01*
X-3736347Y2749303D01*
X-3736347Y2666245D01*
X-3837947Y2856491D02*
G01*
X-3644145Y2856491D01*
X-3644145Y2856491D02*
G01*
X-3644145Y2967489D01*
X-3837947Y3281433D02*
G01*
X-3837947Y3188977D01*
X-3754889Y3179833D01*
X-3764033Y3188977D01*
X-3773431Y3216663D01*
X-3773431Y3244349D01*
X-3764033Y3272289D01*
X-3745745Y3290577D01*
X-3718059Y3299975D01*
X-3699517Y3299975D01*
X-3671831Y3290577D01*
X-3653289Y3272289D01*
X-3644145Y3244349D01*
X-3644145Y3216663D01*
X-3653289Y3188977D01*
X-3662433Y3179833D01*
X-3680975Y3170689D01*
X-3801117Y3360935D02*
G01*
X-3810261Y3379223D01*
X-3837947Y3406909D01*
X-3644145Y3406909D01*
X-3801117Y3467869D02*
G01*
X-3810261Y3486411D01*
X-3837947Y3514097D01*
X-3644145Y3514097D01*
X-3837947Y3630429D02*
G01*
X-3828803Y3602743D01*
X-3801117Y3584455D01*
X-3754889Y3575057D01*
X-3727203Y3575057D01*
X-3680975Y3584455D01*
X-3653289Y3602743D01*
X-3644145Y3630429D01*
X-3644145Y3648971D01*
X-3653289Y3676657D01*
X-3680975Y3695199D01*
X-3727203Y3704343D01*
X-3754889Y3704343D01*
X-3801117Y3695199D01*
X-3828803Y3676657D01*
X-3837947Y3648971D01*
X-3837947Y3630429D01*
D11*
X-266199Y2577599D02*
G01*
X1591149Y2577599D01*
X1874177Y386422D02*
G01*
X1874177Y-858177D01*
X2388100Y-1372100D01*
X3121748Y-1372100D01*
D12*
G01*
X3543808Y-3169157D03*
G01*
X3543808Y-2007107D03*
D13*
G01*
X-2591562Y2552192D03*
G01*
X-2591562Y2806192D03*
G01*
X-2591562Y3060192D03*
G01*
X-2591562Y3314192D03*
G01*
X-2591562Y3568192D03*
G01*
X3580638Y-1626107D03*
G01*
X3580638Y-1372107D03*
G01*
X3580638Y-1118107D03*
G01*
X-2272792Y-2934207D03*
G01*
X-2272792Y-2680207D03*
G01*
X-2272792Y-2426207D03*
G01*
X-2272792Y-2172207D03*
G01*
X-2272792Y-1918207D03*
G01*
X-2272792Y-1664207D03*
G01*
X-2272792Y-1410207D03*
G01*
X2691638Y3644392D03*
G01*
X2691638Y3390392D03*
G01*
X2691638Y3136392D03*
G01*
X2691638Y2882392D03*
G01*
X2691638Y2628392D03*
G01*
X2691638Y2374392D03*
G01*
X2691638Y2120392D03*
G01*
X2691638Y1866392D03*
G01*
X2691638Y1612392D03*
G01*
X2691638Y1358392D03*
G01*
X2691638Y1104392D03*
G01*
X2691638Y850392D03*
G01*
X1151229Y-1054607D03*
G01*
X-898753Y-1054607D03*
G01*
X1151229Y-800607D03*
G01*
X-898753Y-800607D03*
G01*
X1151229Y-546607D03*
G01*
X-898753Y-546607D03*
G01*
X1151229Y-292607D03*
G01*
X-898753Y-292607D03*
G01*
X1151229Y-38607D03*
G01*
X-898753Y-38607D03*
G01*
X1151229Y215392D03*
G01*
X-898753Y215392D03*
G01*
X1151229Y469392D03*
G01*
X-898753Y469392D03*
G01*
X1151229Y723392D03*
G01*
X-898753Y723392D03*
G01*
X1151229Y977392D03*
G01*
X-898753Y977392D03*
G01*
X1151229Y1231392D03*
G01*
X-898753Y1231392D03*
G01*
X1151229Y1485392D03*
G01*
X-898753Y1485392D03*
G01*
X1151229Y1739392D03*
G01*
X-898753Y1739392D03*
G01*
X1151229Y1993392D03*
G01*
X-898753Y1993392D03*
G01*
X1151229Y2247392D03*
G01*
X-898753Y2247392D03*
G01*
X2400808Y-2527807D03*
G01*
X2654808Y-2527807D03*
G01*
X2908808Y-2527807D03*
D12*
G01*
X1874189Y386410D03*
D14*
G01*
X-266192Y2577592D03*
G01*
X1591157Y2577592D03*
G01*
X3121761Y-1372107D03*
M02*
